<?xml version="1.0" standalone="no"?>
<!DOCTYPE svg PUBLIC "-//W3C//DTD SVG 20010904//EN"
 "http://www.w3.org/TR/2001/REC-SVG-20010904/DTD/svg10.dtd">
<svg version="1.0" xmlns="http://www.w3.org/2000/svg"
 width="256.000000pt" height="256.000000pt" viewBox="0 0 256.000000 256.000000"
 preserveAspectRatio="xMidYMid meet">
<metadata>
Created by potrace 1.14, written by Peter Selinger 2001-2017
</metadata>
<g transform="translate(0.000000,256.000000) scale(0.100000,-0.100000)"
fill="#000000" stroke="none">
<path d="M540 2554 c-124 -19 -192 -45 -280 -104 -136 -92 -225 -238 -250
-407 -13 -90 -13 -1436 0 -1526 25 -171 114 -314 253 -409 70 -47 109 -65 202
-89 65 -17 123 -19 815 -19 696 0 750 2 815 19 91 24 137 45 204 91 103 69
183 175 229 302 l27 73 3 765 c2 693 1 772 -14 835 -56 229 -199 380 -429 453
-44 14 -144 16 -800 18 -412 1 -761 0 -775 -2z m1491 -184 c172 -33 306 -167
339 -339 14 -73 14 -1429 0 -1502 -33 -172 -167 -306 -339 -339 -73 -14 -1429
-14 -1502 0 -172 33 -306 167 -339 339 -14 73 -14 1429 0 1502 32 168 167 306
331 338 64 13 1444 13 1510 1z"/>
<path d="M697 2096 c-105 -44 -171 -106 -220 -206 l-32 -65 -5 -270 -5 -270
-54 -190 c-55 -194 -62 -252 -39 -310 21 -54 65 -110 110 -140 23 -16 71 -55
105 -87 34 -32 88 -71 120 -86 l58 -27 545 0 545 0 57 27 c32 14 88 55 126 90
38 35 86 74 105 88 44 30 90 92 106 141 21 64 13 120 -40 304 l-52 180 -6 275
-6 275 -32 66 c-39 80 -120 159 -200 197 l-58 27 -535 2 -535 3 -58 -24z
m1130 -125 c65 -29 124 -91 149 -157 17 -43 19 -76 19 -259 l0 -210 -138 -3
-137 -3 30 54 c25 44 30 65 30 116 0 116 -68 199 -181 222 -144 29 -274 -53
-296 -186 l-6 -36 74 3 c67 3 74 5 77 24 6 39 49 69 98 68 53 -1 81 -23 90
-70 8 -45 -8 -86 -57 -145 l-41 -49 -227 2 -226 3 -3 198 -2 197 -70 0 -69 0
-68 -58 c-38 -32 -73 -65 -80 -73 -11 -14 -21 -144 -11 -154 2 -3 36 22 74 55
38 33 73 60 77 60 4 0 6 -51 5 -112 l-3 -113 -185 0 -185 0 0 220 c1 246 4
261 72 336 43 47 98 78 162 89 25 5 255 8 511 7 l465 -2 52 -24z m-889 -843
l3 -158 69 0 69 0 3 158 3 157 194 3 c107 1 198 -1 203 -6 5 -5 -32 -50 -86
-105 l-96 -96 0 -56 0 -55 240 0 240 0 0 55 0 55 -145 0 c-80 0 -145 3 -145 8
0 4 44 51 98 105 l98 98 164 -3 164 -3 53 -175 c29 -96 53 -192 53 -212 0 -45
-35 -89 -94 -121 l-41 -22 -705 0 -705 0 -41 22 c-59 31 -94 77 -94 120 0 30
92 360 107 386 2 4 91 6 196 5 l192 -3 3 -157z m1012 -436 c0 -17 -78 -82
-125 -104 -50 -23 -54 -23 -528 -26 -552 -4 -554 -3 -638 75 -27 25 -49 50
-49 54 0 5 301 9 670 9 369 0 670 -4 670 -8z"/>
</g>
</svg>
